# xmcd
#
# Track frame offsets:
#	150
#	16587
#	34009
#	49147
#	62691
#	77732
#	93538
#	110408
#	129936
#	143237
#	158555
#	174718
#	190581
#	208148
#	220495
#	235261
#	253799
#	269435
#	283466
#
# Disc length: 4009 seconds
#
# Revision: 1
# Processed by: cddbd v1.5.1PL2 Copyright (c) Steve Scherf et al.
# Submitted via: audiograbber 1.83.01
#
DISCID=150fa713
DTITLE=Various Artist - Country Radio April 2000
DYEAR=2000
DGENRE=Country
TTITLE0=Mark Wills - Almost Doesn't Count
TTITLE1=Paul Brandt - That Hurts
TTITLE2=John Michael Montgomery - You Are
TTITLE3=Brooks and Dunn - You'll Always Be Loved By Me
TTITLE4=Amanda Stott - Black Is Black
TTITLE5=Tracy Byrd - Love, You Ain't Seen The Last Of Me
TTITLE6=Judds, The - Stuck In Love
TTITLE7=Keith Harling - As If
TTITLE8=Ricochet - I Do Love You Enough
TTITLE9=Neal McCoy - Forever Works For Me
TTITLE10=Warren Brothers, The - Sara - That's The Beat Of A Heart
TTITLE11=Kinleys, The - She Ain't The Girl For You
TTITLE12=Steve Wariner - Faith In You
TTITLE13=Danni Leigh - Honey, I Do
TTITLE14=Eric Heatherly - Flowers On the Wall
TTITLE15=Tara Lyn Hart - That's When You Came Along
TTITLE16=John Berry - Wyonna - We Can't Unmake Love
TTITLE17=Charlie Robinson - Poor Man's Son
TTITLE18=Shane Minor - I Think You're Beautiful
EXTD=
EXTT0=
EXTT1=
EXTT2=
EXTT3=
EXTT4=
EXTT5=
EXTT6=
EXTT7=
EXTT8=
EXTT9=
EXTT10=
EXTT11=
EXTT12=
EXTT13=
EXTT14=
EXTT15=
EXTT16=
EXTT17=
EXTT18=
PLAYORDER=
